<?xml version="1.0" standalone="no"?>
<!DOCTYPE svg PUBLIC "-//W3C//DTD SVG 20010904//EN"
 "http://www.w3.org/TR/2001/REC-SVG-20010904/DTD/svg10.dtd">
<svg version="1.0" xmlns="http://www.w3.org/2000/svg"
 width="250.000000pt" height="80.000000pt" viewBox="0 0 250.000000 80.000000"
 preserveAspectRatio="xMidYMid meet">

<g transform="translate(0.000000,80.000000) scale(0.100000,-0.100000)"
fill="#000000" stroke="none">
<path d="M90 546 c-18 -22 -9 -61 14 -61 11 0 21 6 24 13 2 6 -3 12 -12 12
-21 0 -30 18 -16 35 7 8 10 15 7 15 -2 0 -10 -7 -17 -14z"/>
<path d="M260 541 c17 -32 13 -187 -6 -205 -14 -15 -12 -16 27 -16 34 0 40 3
31 12 -8 8 -12 48 -12 115 l0 103 50 0 c36 0 52 -5 59 -17 9 -16 10 -16 11 5
0 21 -3 22 -85 22 -82 0 -85 -1 -75 -19z"/>
<path d="M167 532 c-13 -19 2 -52 24 -52 10 0 19 7 19 15 0 8 -6 15 -14 15 -8
0 -16 8 -18 18 -3 12 -6 14 -11 4z"/>
<path d="M445 465 c-50 -49 -21 -145 44 -145 15 0 35 8 44 18 24 26 21 35 -5
18 -30 -18 -65 -5 -78 29 -6 15 -10 28 -10 31 0 2 25 4 55 4 48 0 55 3 55 19
0 22 -35 51 -63 51 -10 0 -29 -11 -42 -25z m59 -1 c21 -20 12 -34 -23 -34 -37
0 -44 10 -24 32 20 22 27 22 47 2z"/>
<path d="M623 480 c-28 -12 -43 -40 -43 -83 0 -70 87 -105 129 -51 54 69 -8
166 -86 134z m51 -13 c23 -17 34 -100 16 -122 -32 -38 -80 2 -80 67 0 33 20
68 39 68 4 0 15 -6 25 -13z"/>
</g>
</svg>
